<svg xmlns="http://www.w3.org/2000/svg" viewBox="0 0 64 64"><title>Asset 1</title><g id="Layer_2" data-name="Layer 2"><g id="Layer_1-2" data-name="Layer 1"><rect width="64" height="64" style="fill:#6d6e71"/><path d="M17.94,22l12.49,9.85a2.27,2.27,0,0,0,1.48.7,2,2,0,0,0,1.62-.47l12.72-9.85s0-.74-1.39-.74H19.14A2.55,2.55,0,0,0,17.94,22Z" style="fill:#fff"/><polygon points="17.48 23.81 28.07 32.97 17.48 40.88 17.48 23.81" style="fill:#fff"/><polygon points="35.84 33.16 46.52 24.14 46.52 40.88 35.84 33.16" style="fill:#fff"/><path d="M28.76,33.53s1.76,1.89,3.33,1.89,3.19-1.89,3.19-1.89l10.32,8H18.12Z" style="fill:#fff"/></g></g></svg>