<svg xmlns="http://www.w3.org/2000/svg" viewBox="0 0 64 64"><title>Asset 5</title><g id="Layer_2" data-name="Layer 2"><g id="Layer_1-2" data-name="Layer 1"><rect width="64" height="64" style="fill:#26a7df"/><path d="M19.5,21.27a17.57,17.57,0,0,0,12.21,6.32,6.07,6.07,0,0,1,2.16-6.17c3.22-2.67,7.21-.4,8,.6a11.07,11.07,0,0,0,3.84-1.41,6,6,0,0,1-2.42,3.27,11.9,11.9,0,0,0,3.27-.9,12.25,12.25,0,0,1-3,3.08A17.47,17.47,0,0,1,38,39.53c-6.34,6.1-16.78,4.83-20.54,1.64,0,0,5.11.57,8.71-2.5,0,0-4.25-.08-5.48-4.05,0,0,2.13.17,2.5-.24a6.19,6.19,0,0,1-4.62-5.89,7.62,7.62,0,0,0,2.65.73S16.82,26,19.5,21.27Z" style="fill:#fff"/></g></g></svg>