<svg height="512pt" viewBox="0 -36 512 512" width="512pt" xmlns="http://www.w3.org/2000/svg"><path d="m63.28125 230.929688c-4.089844 0-7.570312-3.113282-7.960938-7.257813-.410156-4.398437 2.832032-8.296875 7.222657-8.703125 39.96875-3.710938 78.664062-17.585938 111.914062-40.105469 3.65625-2.472656 8.632813-1.519531 11.109375 2.136719 2.480469 3.65625 1.523438 8.632812-2.140625 11.113281-35.472656 24.023438-76.761719 38.824219-119.402343 42.789063-.238282.019531-.496094.027344-.742188.027344zm0 0"/><path d="m79.839844 261.199219c-3.917969 0-7.34375-2.878907-7.910156-6.871094-.617188-4.375 2.421874-8.425781 6.796874-9.046875 39.242188-5.585938 76.035157-19.394531 109.34375-41.042969 3.707032-2.40625 8.65625-1.351562 11.074219 2.347657 2.40625 3.703124 1.351563 8.660156-2.351562 11.0625-35.273438 22.9375-74.242188 37.558593-115.816407 43.472656-.382812.054687-.761718.078125-1.136718.078125zm0 0"/><path d="m105.984375 289.03125c-3.6875 0-7.007813-2.558594-7.816406-6.320312-.929688-4.3125 1.824219-8.566407 6.144531-9.503907 35.777344-7.695312 69.535156-21.695312 100.367188-41.589843 3.695312-2.417969 8.648437-1.335938 11.054687 2.382812 2.402344 3.710938 1.335937 8.65625-2.382813 11.054688-32.457031 20.953124-68.007812 35.699218-105.679687 43.800781-.558594.121093-1.136719.175781-1.6875.175781zm0 0"/><path d="m132.273438 315.503906c-3.503907 0-6.722657-2.320312-7.707032-5.855468-1.175781-4.257813 1.3125-8.664063 5.570313-9.847657 33.40625-9.273437 65.078125-23.65625 94.152343-42.761719 3.695313-2.421874 8.648438-1.398437 11.078126 2.296876 2.425781 3.6875 1.402343 8.648437-2.296876 11.078124-30.453124 20.011719-63.636718 35.089844-98.644531 44.808594-.722656.183594-1.441406.28125-2.152343.28125zm0 0"/><path d="m157.832031 341.183594c-3.359375 0-6.496093-2.136719-7.601562-5.503906-1.382813-4.191407.90625-8.71875 5.105469-10.105469 32.449218-10.679688 63.257812-25.886719 91.601562-45.183594 3.636719-2.496094 8.621094-1.535156 11.109375 2.113281 2.496094 3.648438 1.546875 8.625-2.109375 11.113282-29.570312 20.152343-61.738281 36.015624-95.601562 47.167968-.832032.277344-1.679688.398438-2.503907.398438zm0 0"/><path d="m182.808594 366.335938c-3.242188 0-6.296875-1.984376-7.496094-5.199219-1.542969-4.144531.550781-8.746094 4.695312-10.289063 32.871094-12.28125 64.070313-28.910156 92.71875-49.433594 3.578126-2.589843 8.585938-1.742187 11.160157 1.84375 2.578125 3.582032 1.753906 8.582032-1.839844 11.15625-29.789063 21.347657-62.230469 38.640626-96.4375 51.417969-.929687.335938-1.875.503907-2.800781.503907zm0 0"/><path d="m207.382812 391.078125c-3.144531 0-6.125-1.863281-7.398437-4.949219-1.679687-4.089844.261719-8.769531 4.351563-10.449218 34.648437-14.246094 67.390624-33.039063 97.3125-55.839844 3.527343-2.671875 8.535156-1.984375 11.214843 1.511718 2.671875 3.511719 1.992188 8.535157-1.511719 11.214844-31.039062 23.640625-64.992187 43.128906-100.917968 57.90625-1 .40625-2.035156.605469-3.050782.605469zm0 0"/><path d="m231.664062 415.503906c-3.070312 0-5.992187-1.769531-7.320312-4.75-1.792969-4.042968.023438-8.769531 4.0625-10.5625 37.875-16.832031 73.394531-38.75 105.5625-65.128906 3.40625-2.816406 8.445312-2.300781 11.253906 1.121094 2.800782 3.417968 2.304688 8.457031-1.117187 11.257812-33.28125 27.277344-70.027344 49.941406-109.203125 67.375-1.054688.472656-2.148438.6875-3.238282.6875zm0 0"/><path d="m56.367188 199.40625c-4.152344 0-7.65625-3.199219-7.96875-7.398438-.328126-4.40625 2.976562-8.246093 7.378906-8.574218 39.183594-2.9375 76.574218-16.890625 108.152344-40.335938 3.550781-2.648437 8.550781-1.898437 11.191406 1.65625 2.632812 3.542969 1.894531 8.558594-1.648438 11.191406-34.007812 25.261719-74.289062 40.285157-116.496094 43.445313-.199218.007813-.410156.015625-.609374.015625zm0 0"/><path d="m58.183594 167.128906c-4.070313 0-7.542969-3.089844-7.953125-7.21875-.429688-4.398437 2.785156-8.308594 7.175781-8.742187 37.019531-3.632813 71.355469-18.648438 99.296875-43.40625 3.296875-2.929688 8.351563-2.640625 11.289063.679687 2.929687 3.300782 2.625 8.359375-.679688 11.292969-30.488281 27.019531-67.953125 43.394531-108.34375 47.355469-.257812.023437-.519531.039062-.785156.039062zm0 0"/><path d="m70.617188 132.929688c-3.722657 0-7.058594-2.609376-7.832032-6.394532-.890625-4.335937 1.902344-8.558594 6.230469-9.4375 35.578125-7.28125 66.878906-27.65625 88.144531-57.363281 2.566406-3.589844 7.558594-4.429687 11.167969-1.847656 3.59375 2.570312 4.425781 7.570312 1.847656 11.160156-23.625 33-58.40625 55.632813-97.953125 63.722656-.535156.109375-1.070312.160157-1.605468.160157zm0 0"/><path d="m369.433594 325.824219c-.753906 0-1.511719-.105469-2.273438-.328125-107.839844-31.9375-183.160156-132.878906-183.160156-245.496094 0-4.992188.144531-9.953125.425781-14.863281.253907-4.417969 4.0625-7.792969 8.445313-7.527344 4.410156.253906 7.785156 4.03125 7.519531 8.445313-.261719 4.609374-.390625 9.265624-.390625 13.945312 0 105.574219 70.609375 200.214844 171.703125 230.152344 4.234375 1.253906 6.648437 5.703125 5.402344 9.945312-1.035157 3.46875-4.226563 5.726563-7.671875 5.726563zm0 0"/><path d="m344.207031 351.191406c-.902343 0-1.832031-.160156-2.734375-.488281-113.328125-41.222656-189.472656-150.023437-189.472656-270.703125 0-5.273438.144531-10.511719.414062-15.710938.226563-4.417968 3.730469-7.855468 8.417969-7.570312 4.40625.234375 7.800781 4 7.566407 8.410156-.253907 4.917969-.398438 9.878906-.398438 14.871094 0 113.984375 71.910156 216.726562 178.945312 255.679688 4.160157 1.503906 6.292969 6.105468 4.78125 10.25-1.183593 3.246093-4.246093 5.261718-7.519531 5.261718zm0 0"/><path d="m395.695312 299.449219c-.535156 0-1.085937-.058594-1.640624-.167969-103.175782-21.496094-178.054688-113.722656-178.054688-219.28125l.039062-4.457031c.074219-4.375 3.640626-7.871094 8-7.871094h.136719c4.417969.070313 7.9375 3.710937 7.863281 8.128906l-.039062 4.199219c0 98.023438 69.519531 183.65625 165.320312 203.617188 4.328126.894531 7.105469 5.136718 6.191407 9.460937-.777344 3.769531-4.105469 6.371094-7.816407 6.371094zm0 0"/><path d="m423.601562 271.28125c-.234374 0-.480468-.007812-.714843-.035156-92.054688-8.140625-165.238281-80.8125-174.015625-172.796875-.421875-4.402344 2.808594-8.304688 7.199218-8.730469 4.488282-.429688 8.304688 2.816406 8.722657 7.203125 8.046875 84.316406 75.128906 150.925781 159.503906 158.382813 4.40625.390624 7.65625 4.269531 7.261719 8.671874-.367188 4.175782-3.855469 7.304688-7.957032 7.304688zm0 0"/><path d="m440 240c-88.222656 0-160-71.777344-160-160 0-1.535156.015625-3.0625.054688-4.601562.121093-4.421876 4.113281-8.078126 8.210937-7.78125 4.421875.117187 7.902344 3.789062 7.789063 8.207031-.039063 1.390625-.054688 2.777343-.054688 4.175781 0 79.398438 64.601562 144 144 144 1.574219 0 3.144531-.03125 4.703125-.078125 4.226563-.105469 8.121094 3.308594 8.257813 7.726563.152343 4.414062-3.3125 8.121093-7.730469 8.253906-1.726563.066406-3.476563.097656-5.230469.097656zm0 0"/><path d="m440 208c-70.574219 0-128-57.425781-128-128 0-5.199219.3125-10.441406.929688-15.566406.527343-4.394532 4.503906-7.511719 8.902343-6.984375 4.382813.527343 7.503907 4.511719 6.984375 8.894531-.542968 4.496094-.816406 9.089844-.816406 13.65625 0 61.761719 50.238281 112 112 112 4.609375 0 9.246094-.28125 13.785156-.839844 4.511719-.558594 8.382813 2.582032 8.910156 6.96875.535157 4.382813-2.574218 8.375-6.960937 8.917969-5.183594.625-10.476563.953125-15.734375.953125zm0 0"/><path d="m440 176c-52.9375 0-96-43.0625-96-96 0-5.519531.480469-11.070312 1.414062-16.480469.769532-4.351562 4.914063-7.230469 9.25-6.511719 4.351563.761719 7.273438 4.894532 6.511719 9.25-.777343 4.511719-1.175781 9.132813-1.175781 13.742188 0 44.113281 35.886719 80 80 80 4.601562 0 9.191406-.390625 13.671875-1.167969 4.335937-.71875 8.496094 2.167969 9.238281 6.519531.746094 4.351563-2.167968 8.496094-6.519531 9.25-5.367187.925782-10.886719 1.398438-16.390625 1.398438zm0 0"/><path d="m440 144c-35.289062 0-64-28.710938-64-64 0-2.601562.167969-5.183594.464844-7.710938.527344-4.378906 4.488281-7.519531 8.894531-6.992187 4.394531.527344 7.511719 4.503906 6.992187 8.894531-.230468 1.90625-.351562 3.847656-.351562 5.808594 0 26.472656 21.527344 48 48 48 1.921875 0 3.824219-.105469 5.679688-.328125 4.398437-.488281 8.367187 2.617187 8.886718 7 .523438 4.382813-2.613281 8.359375-7 8.886719-2.476562.296875-5.007812.441406-7.566406.441406zm0 0"/><path d="m256 440c-2.136719 0-4.167969-.847656-5.671875-2.359375l-165.671875-166.738281c-48.792969-49.070313-48.792969-128.925782 0-178.015625 23.632812-23.789063 55.0625-36.894531 88.503906-36.894531 30.832032 0 59.953125 11.144531 82.839844 31.519531 22.886719-20.382813 52.015625-31.519531 82.839844-31.519531 33.441406 0 64.863281 13.105468 88.503906 36.894531 48.792969 49.082031 48.792969 128.945312 0 178.007812l-165.671875 166.746094c-1.503906 1.511719-3.535156 2.359375-5.671875 2.359375zm-82.839844-368c-29.144531 0-56.535156 11.425781-77.160156 32.167969-42.601562 42.871093-42.601562 112.609375 0 155.457031l160 161.023438 160-161.023438c42.601562-42.847656 42.601562-112.585938 0-155.457031-20.617188-20.753907-48.015625-32.175781-77.160156-32.175781-29.152344 0-56.550782 11.421874-77.167969 32.175781-3 3.015625-8.34375 3.015625-11.34375 0-20.617187-20.742188-48.023437-32.167969-77.167969-32.167969zm0 0"/><path d="m24 48c-13.230469 0-24-10.769531-24-24s10.769531-24 24-24 24 10.769531 24 24-10.769531 24-24 24zm0-32c-4.414062 0-8 3.59375-8 8s3.585938 8 8 8 8-3.59375 8-8-3.585938-8-8-8zm0 0"/><path d="m94.527344 102.503906c-2.046875 0-4.09375-.785156-5.65625-2.335937l-59.214844-59.191407c-3.128906-3.128906-3.128906-8.191406 0-11.320312s8.183594-3.121094 11.3125 0l59.214844 59.183594c3.128906 3.128906 3.128906 8.191406 0 11.320312-1.558594 1.558594-3.609375 2.34375-5.65625 2.34375zm0 0"/><path d="m488 48c-13.230469 0-24-10.769531-24-24s10.769531-24 24-24 24 10.769531 24 24-10.769531 24-24 24zm0-32c-4.414062 0-8 3.59375-8 8s3.585938 8 8 8 8-3.59375 8-8-3.585938-8-8-8zm0 0"/><path d="m417.472656 102.503906c-2.046875 0-4.097656-.785156-5.65625-2.34375-3.128906-3.128906-3.128906-8.191406 0-11.320312l59.214844-59.183594c3.128906-3.121094 8.183594-3.121094 11.3125 0s3.128906 8.191406 0 11.320312l-59.214844 59.183594c-1.570312 1.558594-3.617187 2.34375-5.65625 2.34375zm0 0"/></svg>