<svg height="64" viewBox="0 0 64 64" width="64" xmlns="http://www.w3.org/2000/svg"><path d="m31.32 21.81c-1.2-.43-10.63-2.55-16.3 2.34s-5.53 10.7-5.1 14.74 2.19 10.56 11.27 11.84 10.21-1.28 12.54-1.49a5.52 5.52 0 0 1 4.4 2.06c.35.42.57.78 2.55-.29s8.08-6.24 8.58-6.8.28-.64.21-1.85-.35-1-2-2.62-1.63-3.05-2.2-5.6-.43-15.73-1.07-19.85-2.38-12.12-11.32-13.11-13.25 2.27-16.3 5.67a21.48 21.48 0 0 0 -4.18 8.44l.78 2.62c1.34.64 10.13 2.41 10.13 2.41s.5-4.18 2.06-5.25a5.75 5.75 0 0 1 7.23.57c2.69 2.41 1.28 7.3 1.28 7.3a22.1 22.1 0 0 0 -2.56-1.13zm1.42-8.65c-3.75-2.13-7-1.91-9.14-.28s-2.2 4.46-2.77 4.39a69.54 69.54 0 0 1 -7.23-2.62s2.77-6.38 6-8.93 6.45-4.26 13.82-3a10.93 10.93 0 0 1 9.29 9.78c.21 2.34.85 11 .85 11s-1.7-3.12-1.92-3.05-.35.92-.35.92l2.2 3.41.07 2-2.2-2.62s-.57.92-.21 1.13a20.65 20.65 0 0 1 2.48 3.19c.07.28.21 3.4.21 3.4l-2.41-3a2.26 2.26 0 0 0 -.21 1.2c.14.43 2.69 2.91 2.69 3.12s1.28 4.47.85 4.32-2.76-3.52-2.76-3.52-.57.85-.36 1.06 3.19 4 3.48 4.33 2.69 2.55 2.69 2.55-.35 1.28-.78 1.13-2.8-3.68-3.03-3.54a.65.65 0 0 0 -.07 1.06 15.38 15.38 0 0 1 2.34 3c-.07.21-1.35.78-1.35.78a47.44 47.44 0 0 0 -3.61-4c-.21.07-.78.43-.57.64s3.26 3.76 3.26 3.76l-1 .86a35.57 35.57 0 0 0 -2.69-3.12c-.22 0-.78.35-.64.56s2.48 3.12 2.48 3.12-.78.92-1.13.71-2.7-3-2.7-3-.71.29-.42.57a26.71 26.71 0 0 1 2.55 3c-.21 0-1.28.42-1.42.21s-3.47-3.33-3.9-3.33-1.2.85-3.61 1.63-9.64 3.19-15.6.78-4.8-12.33-4.16-15.76 5.39-8.62 12.24-9 9.78 1.91 10.49 1.91.78.57.85-.63 1.16-7.99-2.6-10.12zm-14.88.07c-.29-.07 1.34-3.26 1.63-3.4s-.43-.71-.78-.71-3 4.3-2.77 4.54a10.75 10.75 0 0 0 3.55 1.41c.56 0 .21-.63.21-.85s-1.56-.92-1.84-.99zm-1 30.2c-1.27-.92-1.84-3.9-1.84-3.9-1.35.14-1.13 1.2-1.13 1.49a8.43 8.43 0 0 0 1.56 3.61 9.66 9.66 0 0 0 4.6 1.7c.43-.14.5-.92.36-1.34s-2.27-.64-3.55-1.56zm19.57-7c.49 0 .85-5.24.71-5.6s-1 .21-1 .21a24.18 24.18 0 0 0 -.21 5.39c.21.33 0 .05.5.05zm-17.72-4.49c-.36 2.34-1.21 7.73 4.68 8.87s9.49-1.81 10.42-4.54 1-7.43.56-7.59c-11.06-3.97-15.31.93-15.66 3.26zm12.05 6.53c-3 1.84-7.66 1.27-9.36-.36s-.37-5.9 3-6.52c3.05-.57 5-1 8.43 1.06-.02 0 .9 3.97-2.07 5.82zm11.69 17c-3 .85-9.42 1.2-17.72.57s-18.14-6.23-18.14-6.23c-2.49 1.49.92 5 7.86 9.35s14.68 4.12 21.77 3.48 12-5.46 12.12-6.17.07-2.41-.36-2.62-2.48.78-5.53 1.63zm-2.05 3.27c-4.54 1.13-8.08 2.76-18.57.42s-13.26-6.45-12.83-6.87c.15-.15 9 5.6 20.62 5.39s14.89-1.35 14.89-1.35.42 1.27-4.11 2.41zm17.44-8c-.64-.85-8.72-3.12-9.43-3.19s-1.21.85-1.49 2.05.64 1.64 1.06 1.92 2.67 2.25 2.55 3.26a35.2 35.2 0 0 1 -1.84 5.46c-.21.42.28 1.2.64 1.49s1.42.85 3.9-.57 3.12-3 4.11-4.89 1.13-4.69.5-5.54zm-3.27 6.1a8.86 8.86 0 0 1 -3 2.55c-.22 0 1.27-4.54 1.13-5.39s-3.19-4-3.83-4.11c0 0-.28-.92 1.14-.64s6.31 2.13 6.45 2.84a8.13 8.13 0 0 1 -1.89 4.74z" fill="#232021"/></svg>