<svg height="64" viewBox="0 0 64 64" width="64" xmlns="http://www.w3.org/2000/svg"><path d="m61 45.15c-.6-1.44-3.75-5-4.43-5s-1.8 1-2.64 1.55a67.87 67.87 0 0 1 -8.93 4.41 33.89 33.89 0 0 1 -10.22 2.55 21.76 21.76 0 0 1 -11.78-2.39c-4.16-2.27-8.31-6.27-9.35-11.22s.08-7.95 3.71-13.22 11.26-8.42 17-9.46 12 1 15.33 3.83 3.59 6.11 3.83 9.51a6.42 6.42 0 0 1 -3.52 5.86 1.49 1.49 0 0 1 -1.72-.43c-.4-.48-.08-8.79 0-10.22s-.88-2.44-1.55-2.44-5.87-.32-6.59 0-.6 1.36-.6 1.36-2-1.24-2.79-1.6a22.2 22.2 0 0 0 -10.06-.08c-4.48 1-7.19 4.83-8.51 7.71a12.67 12.67 0 0 0 .28 10.73 16.84 16.84 0 0 0 11.06 7.83c5.19 1.2 10.66-1.68 10.66-1.68a34.29 34.29 0 0 0 6.83.64c2.43-.2 5.66-1.87 8.46-4.87s3.71-6.31 5.15-11.86.18-9.46-1.62-13.37-5.87-7.11-9.34-8.7-8.18-2.76-15-2.72-10 .77-14.33 2.48c-9.63 3.83-13.11 10.74-15.18 15.65s-3.24 12.89-2.64 17.56 2.84 8.79 6.75 13.54a31.2 31.2 0 0 0 15.13 10.22c5.87 1.67 14 .56 21.92-1.56s14.09-8.7 14.89-10.06.4-3.11-.2-4.55zm-9.86 8.26c-.36-.32-4-6.31-4.31-6.23s-.88.4-.68.56 4.39 5.83 4 6.11-.84.72-1 .4-3.75-6.47-4.07-6.47-.88.44-.8.6 4.55 6.19 4 6.35-.76 1-1.23.32-3.56-5.71-3.88-5.75-1 .48-.88.64 3.48 5.59 3.36 5.75-.92.76-1.12.48-3.17-5.55-3.53-5.75-1 .4-.84.52 3.39 5.47 3.15 5.55-1.15.43-1.31.28-2.88-5.19-3.44-5.23-1 .24-.84.31 3.28 5.15 3 5.15-1.12.48-1.28.24-2.75-5.7-3.27-5.74-1.12.12-.88.51 2.79 5.39 2.79 5.39-.8.56-1.11.12-3.28-5.27-3.52-5.39-.92 0-.72.24 3.64 5.23 3.16 5.23-.68.6-1.08 0a48.47 48.47 0 0 0 -3.43-4.83c-.24 0-.84.16-.72.52s2.83 4.43 2.51 4.39-.88.32-1.12 0-3-4.95-3.51-4.95-.88.48-.84.6 3.4 4.19 2.76 4.31-1.36.32-1.52-.16a23.77 23.77 0 0 0 -2.63-4.07c-.32-.12-1-.28-.88.12s2.79 3.91 2.07 3.91-1 .12-1.27-.32-2-3.63-2.08-3.63-1 .12-.84.64 1.8 2.87 1.24 2.87a33.25 33.25 0 0 1 -13.41-7.82c-5-5.15-6.39-8.78-6.91-13a30.53 30.53 0 0 1 1.36-13.63c1.59-4.47 4.35-9.46 7.9-12.69s9.7-6.95 21.92-6.55c5.62.18 11.66.8 16.25 3.83s7.14 7.07 7.78 11.86a23.42 23.42 0 0 1 -1.72 12.81c-1.72 4.08-3.72 6.51-5.72 7.27s-6.39 1.52-7.19.8-3.07-5.75-3.63-5.63-.6.6-.44 1 2.43 4.23 2 4.19-.75.12-1.07-.48-2.32-6-2.84-6.07-1 .12-.84.4a34.71 34.71 0 0 1 1.8 4.35c-.08.16-.36.84-.64.56s-1.8-3.55-2.07-3.47a.94.94 0 0 0 -.47 1.27 27.5 27.5 0 0 1 1.67 3.11c-.08.2-.4.64-.64.24s-1.63-3.43-2-3.51-1.08.12-.8.56a39.48 39.48 0 0 1 1.88 3.71c0 .12-.6.6-.8.2s-1.6-3.24-2-3.24-.68.16-.44.68 1.48 2.8 1.44 2.92a.41.41 0 0 1 -.72.12c-.4-.4-1.8-3.56-2.2-3.56s-1.11.48-.87.8 1.71 2.64 1.35 2.76-.36.44-.71 0-1.43-2.59-1.77-2.63-.92.4-.72.64 1.68 2.28 1.28 2.28-1.28 0-1.52-.2-1.52-2.8-1.8-2.84-1 .12-.75.44 1.19 2.2.75 2.08a17 17 0 0 1 -6.42-4c-2.28-2.47-2.64-6.74-2.08-9.06a13.07 13.07 0 0 1 5.26-6.86 14.45 14.45 0 0 1 9.18-1.92 9.54 9.54 0 0 1 6.51 3.19 1.87 1.87 0 0 0 1.08.72c.44.12.4 0 .36-.52a16.76 16.76 0 0 1 -.13-2.67c.12 0 5.35 0 5.59.36s.16 4.11.24 5.95-.72 5.35.59 6.42a2.86 2.86 0 0 0 3.48.52 8 8 0 0 0 3.59-5.27c.44-2.51.92-7-2.83-11.06s-7.11-5.82-11.26-6.82-11.5.32-14.93 1.51-9.47 5.71-11.58 10.5a27 27 0 0 0 -1.8 13.5c.48 2.51 3.64 7.9 6.23 9.94a25.12 25.12 0 0 0 11.9 5c5 .6 12.49-1.8 13.25-2.08s3.68-1.47 4-1.31a66.94 66.94 0 0 1 4.16 6.3c.03.1-.13.83-.49.51zm5-3.35c-.24-.52-3.12-5.75-3.52-5.63s-1 .36-.75.6 3.55 5.47 3.39 5.71-.52.84-.92.48-3.11-5.71-3.43-5.71a1.33 1.33 0 0 0 -.88.68c0 .16 3.51 5.51 3.39 5.66s-.44.8-.88.56c-.27-.15-2.55-4.67-3-5.19s-.88-1.07-.76-1.31a20.74 20.74 0 0 1 4.39-2.28 34.2 34.2 0 0 1 3.83 5.95c-.11.24-.63 1-.87.48zm1.47-.92c-.31-.36-3.35-6.11-3.43-6.27s1-.52 1.08-.48 3.74 5.31 3.54 5.67-.88 1.44-1.2 1.08zm2.64-2.47c-.24.35 0 .91-.52.59s-3.23-5.19-3.35-5.35.16-.39.44-.28 3.66 4.68 3.42 5.04zm-27.4-22.52c-3.19-1.08-6.54-.32-7.94.76-3.67 2.83-2.84 6.47-.68 9.06s5.63 2.32 8.58 1.48 3.92-3.16 4.16-5.39a5.59 5.59 0 0 0 -4.12-5.91zm-.48 10.3c-2.95.64-4.63.64-6.18-.76s-1.36-4.39 1.23-5.69a10.22 10.22 0 0 1 5.83-.52 3.75 3.75 0 0 1 2.4 2.36c0 .38-.32 3.97-3.28 4.61zm-7.06-11.14c.52-.28-.2-1.08-.6-1a10.84 10.84 0 0 0 -3.15 2 5 5 0 0 0 -1.48 3.51c.12.4.84.28 1.28.16s.39-1.28.91-2.35 2.52-2.04 3.04-2.32zm-12.9-6.83c.6-.55.8-1.55-.12-1.31s-4.47 4.63-5.35 7.1-1.19 5.35-.83 5.91a4.32 4.32 0 0 0 .95 0c.44-.08.2-1 1.12-4.75a15.13 15.13 0 0 1 4.23-6.95zm33.3 4.2c-.36-.36-3.54-.42-3.71-.12a.48.48 0 0 0 .16.71s1.91.08 2.23.08.08 2.88.12 3.48.48.32 1 .32.56-4.15.2-4.47zm5.63 12.32a5.6 5.6 0 0 1 -3.2.68c-1.15-.24-1.8-1.78-2-1.72-1 .32-.36 1.64.72 2.28s2.15.4 3.59 0 1.25-1.47.89-1.24z" fill="#1d1d1b"/></svg>