<svg height="64" viewBox="0 0 64 64" width="64" xmlns="http://www.w3.org/2000/svg"><path d="m56 39.34c-1.34-.45-3.51-.61-5.63 2.11s-1.61 8.24-1.78 9.13-4.23.45-10.13-.33-10.91-.5-11.8-.78-.39-10.24-.28-10.74 3.17-.67 5.34-.62 1.78 1 2.23 1.39 3.06 2.57 5 2.4 2.45-1.78 2.57-3.84.11-9.63.22-12.53-.22-4.62-1.51-5.07-3.56-.66-4.89.39-1 4-1 4.85-.44 1.83-2.06 2-5.9-.17-6.73-.61-.78-11.25-.5-11.64 21.49-1 21.65-.89.06 1.84.5 4 2.45 4.62 4.18 5.07a5 5 0 0 0 5.34-3.18c1-2.39.78-13 .39-16.64s-4.31-2.81-5.43-2.55-2.68 1.11-4.34 1.67-4.68 1.07-13.08 1.44a143.39 143.39 0 0 1 -21.83-1c-4.06-.5-6.45.5-6.84 1s.66 10.58 1 11.19 6.35.83 6.52.83c0 0 .55 7.52 1 18.71s-.72 13.14-1.62 14.31-4.62 1.17-6.01 1.59-1.17 4.23-.89 5.79a6.92 6.92 0 0 0 4.06 5.35c3.12 1.61 4.79.72 17-.22s19.54.55 21.6.61 3.4.5 5.62-1 1.93-2.37 2.13-7.16 2-9.46 2.53-11.25-1.17-3.34-2.53-3.78zm-1.28 6.57c-.28 1.44-1.12 7.74-1.12 7.74s-.78-.73-1.17-.45-.94.72-.72 1a8.44 8.44 0 0 1 1.2 1.8c.11.45-.06 2.34-.22 2.18s-1.69-2.7-1.95-2.7-1.28.28-1.12.62 2.56 3.06 1.9 3.28a5 5 0 0 1 -2.06-.17 32 32 0 0 0 -2.29-3.28c-.27-.11-1.11.22-1.05.44s2.11 2.79 1.78 2.79-2.45-.11-2.67-.45-1.79-2.71-2.12-2.78-1.23.11-1.17.44 1.89 2.4 1.5 2.4a9.08 9.08 0 0 1 -2.5-.17c-.22-.22-1.23-3.23-1.84-3.28a1.4 1.4 0 0 0 -1.06.44s1.73 2.84 1.23 2.84-1.67-.11-1.67-.11-1.78-3.23-2.12-3.29-1.28.23-1.22.45 1.89 3 1.67 3a17 17 0 0 1 -2.4-.22c-.16-.11-1.72-3.18-2.11-3.23s-1.06.05-1.06.5 1.45 3 1.28 3-2.11-.28-2.11-.28a22.11 22.11 0 0 0 -1.4-3c-.22-.11-1.33.11-1.28.34s1.56 2.56 1.17 2.56-1.84-.06-1.84-.06a41.78 41.78 0 0 0 -2.5-4.26c-.22 0-1.23.16-1.23.5s1.84 3.23 1.62 3.5-1.89.12-1.89.12-1.9-3.57-2.29-3.73-1.44.66-1.44.66 3.06 3.4 2.5 3.4h-2.62s-1.22-3.23-2.06-3.23-1 .61-.89.78 1.84 2.23 1.34 2.45a2.88 2.88 0 0 1 -1.78.11 28.1 28.1 0 0 0 -1.78-2.56c-.28-.11-1.17.17-1.17.34a23.13 23.13 0 0 1 1.17 2.66 10.81 10.81 0 0 1 -3.79-.06c-.61-.34-1.89-5.8-1.37-5.94s4.17.16 6.4-2.4 2.39-6.73 2.11-14.86-.5-17.87-1.11-21.1-1.34-3.51-1.78-3.68-4.23-.39-4.4-.72-1.46-4.24-.91-4.53 5 .39 14.37.84 18.15.5 22.88-.62 7-2.5 8.07-2.28a2 2 0 0 1 1.45 1.84c.06.5-.22 4.62-.22 4.62a41.7 41.7 0 0 0 -3.51-2.45c-.17 0-.72 1.39-.33 1.72a41.21 41.21 0 0 1 3.56 2.62 5.33 5.33 0 0 1 0 2.12c-.17 0-3-2.68-3.29-2.56s-.44 1.44-.11 1.67a31 31 0 0 1 3.51 2.95 5 5 0 0 1 -.17 1.22s-2-2.11-2.45-1.95-.83.78-.55 1 2.17 1.78 2 1.94a3.73 3.73 0 0 1 -2.45.34c-.61-.34-.67-6.29-2-7.63s-7.74-.83-14.76-.67-8.9-.16-11 1.23-2 14.53.06 16.48 6.06 2.11 9 2.11a4.26 4.26 0 0 0 4.45-3c.39-1.28-.11-4.35.89-4.68a1.57 1.57 0 0 1 1.51.11s.28 14.25-.23 14.64-1.11-3.28-3.67-3.67-8.91-.78-10.47.11-.89 5.34-.89 9.52-.72 7.24.61 8 4.9.39 11.31 1 12.74 1.81 14.12 1.09 1.12-3 1.12-3.62.28-5.35 1.56-6.74 2.45-1.67 3-1.28-.68 2.73-.93 4.18zm-43.51-38.86c-.45.27-.56 1.56 0 1.78a35.47 35.47 0 0 0 5.06.83c.39-.05.28-1.5.06-1.89s-4.83-.9-5.12-.72z" fill="#1d1d1b"/></svg>