<svg height="64" viewBox="0 0 64 64" width="64" xmlns="http://www.w3.org/2000/svg"><path d="m47.47 41.9c-.06-12.09-.48-25.33-.6-30.06s-1-5.21-2.28-5.81-9.94-1.25-17.54-.72-9 1.47-9.58 2c-2.22 1.8-.12 17.67.24 28.63s.72 19.7 1.67 20.77 6 1.56 11.44 1.92 10.54.48 13.89-.36 2.82-4.27 2.76-16.37zm-3.59 9.64c-.24 2.28-1.08 3.46-1.88 3.6s-14.37.24-16.47.24-5.39.24-5.87-2.46-.78-17.18-1.08-25.09-1.65-18.74.02-19.83c.65-.42 10.36-1.74 15-1.74s8.68.3 9.34 1 1.79 2.88 2 15.27-.83 26.74-1.06 29.01zm-13.48-41.04c1.12.4 2-.83 1.72-1.39a1.36 1.36 0 0 0 -2-.36 1.07 1.07 0 0 0 .28 1.75zm.72 38.5a2.68 2.68 0 0 0 -2 1.76 2.25 2.25 0 0 0 2.08 2.43c1.88.32 3.35-1.16 3-2.59s-1.97-1.78-3.08-1.6zm1.88 2.26c-.2 1-1.48.8-1.92.68a1 1 0 0 1 .48-1.94c.82-.19 1.68.23 1.44 1.26zm-9.94-7c-.44.28-.72.28-.52.76s3.75 5 4.07 4.55-3.31-5.42-3.51-5.29zm1.15-5.59c-.4.16-.75.32-.75.8s6.26 7.38 6.62 7.1-5.31-8.09-5.83-7.88zm-.52-5.87a.94.94 0 0 0 -.63 1c.12.4 11.37 13 11.65 12.49s-10.71-13.5-10.98-13.47zm.72-5.51c-.32-.12-.8.4-.72.84s14.66 16.33 15.1 16.53.35-.16.35-.52-14.42-16.73-14.69-16.83zm14.38 11.6c.16 0 .27 0 .12-.56s-13.91-17.85-14.14-17.8-.72.51-.6.75 14.46 17.61 14.62 17.61zm-13.42-24c-.28.12-.68.48-.56.79s14.73 18.26 15.05 18.5.4.28.56 0-14.62-19.47-15.05-19.28zm5.71.79c-.36 0-.64.52-.48.72s8.86 10.82 9.18 11 .44 0 .52-.28-8.82-11.47-9.22-11.43zm4.23-.47c-.48 0-.68.24-.68.55a71.63 71.63 0 0 0 5.75 6.79c.28.08.2-.12.24-.32s-4.88-7.01-5.31-7.01zm4.47.47c.44.36.36.2.48-.12s-.66-2.67-1.26-2.74c-.36 0-.8.48-.76.64a11.52 11.52 0 0 0 1.54 2.23z" fill="#1d1d1b"/></svg>