<svg height="64" viewBox="0 0 64 64" width="64" xmlns="http://www.w3.org/2000/svg"><path d="m55.89 7.26a12 12 0 0 0 -7.82-4.95c-2.07-.24-4.07 1.04-6.67 3.69a128.44 128.44 0 0 0 -8.62 9.63c-.84 1.37-2.16 2.37-1.78 4.93s1.68 4 3.44 5.35 5.15 2.51 6 3.07a2.85 2.85 0 0 1 .83 3.11c-.32 1.36-2.79 4.08-4.83 5.51s-3.27 2-4.67 1.6-2.62-1.48-5.22-4.2-4.71-4.51-6.82-4.91-5.39 2.47-8.39 6.11-6.51 8.42-6.58 9.38a37.73 37.73 0 0 0 1.24 6.59c.32.92 3.16 3.28 3.16 3.28a4.77 4.77 0 0 0 -1.2.92 15.62 15.62 0 0 0 .51 3.63c.2.84 2 1.72 2.67 1.68s3.52-3.08 3.52-3.08a38.4 38.4 0 0 0 9.7.44c6.14-.36 9.26-3.35 15.73-8.46a53.47 53.47 0 0 0 14.29-17.81c3.35-6.51 4.83-12 4.87-15.21a19.8 19.8 0 0 0 -3.36-10.3zm-3.39 7.51c.48.4 5.11 3.91 5.19 4.31s.48 2-.16 1.68-4.35-4.2-5.15-3.8-.52.76-.12 1 4.79 3.63 4.87 4-.2 1.36-.48 1-4.71-3.96-5.11-3.96-.87.32-.36.8 5.23 3.87 5.31 4.31-.16 1.24-.48 1.16-4.59-3.72-4.95-3.27-.55.68-.24 1 4.6 3.12 4.72 3.39-.32 1.64-.68 1.32-4.15-3.27-4.51-3.15-.4.92 0 1.24a44.12 44.12 0 0 1 3.95 2.95c0 .28-.36 1.2-.64 1s-3.83-3.2-4.27-3-.52.88-.2 1a33.74 33.74 0 0 1 4 2.72c.08.28-.32 1.43-.6 1.15s-3.71-2.79-4.15-2.67a.51.51 0 0 0 -.24.84c.2.28 3.75 2.47 3.67 2.71s-.48 1.36-.76 1.16-4.43-3.07-4.79-2.91-.6.83-.32.95 4.68 2.68 4.6 3-.68 1.08-.84.92-3.76-2.62-4.09-2.57-.87.68-.51.92a37.66 37.66 0 0 1 3.84 2.75c0 .2-.56 1.4-.76 1.2s-3.79-3.31-4.11-3.23-.6.36-.32.76 3.67 3 3.59 3.27-.6 1.44-1 1.24-3.67-3.24-4-3.08-.72.64-.36.92 4 2.68 3.63 3-.39 1.07-.87.79-3.4-2.79-3.84-2.71-1.11.52-.67.8 4.11 2.47 3.75 3-.44 1.12-.72.92-3.59-3.47-4-3.23-.84.32-.64.72 4 3 3.87 3.27-.44 1-.84.84-3.87-3.4-4.15-3.28-.6.6-.48.8 3.75 3 3.71 3.36-.71 1.43-1.07 1.23-4.12-3.59-4.67-3.51-.6.48-.44.76 4.27 3 4.07 3.39-.64.88-.84.72-4.15-3.55-4.51-3.47-1.16.28-.72.64 4.59 3 4.47 3.35-1.16 1.4-1.67 1.32-4.36-3.84-5-3.8a.65.65 0 0 0 -.51 1c.2.2 4.55 2.92 4.23 3.28a1.28 1.28 0 0 1 -1.08.52c-.4 0-4.47-3.76-5-3.64s-.8.76-.6 1 4.47 3 4.43 3.27-.56.52-1 .48-4.49-3.84-5.09-3.62-.59.56-.36.8 4.91 2.95 4.68 3.43a2.12 2.12 0 0 1 -1.84.72c-.28-.2-4.79-3.39-5.15-3.43s-1 .44-.72.72 4.63 2.63 4.47 3a2.41 2.41 0 0 1 -2 .64c-.72-.12-4-3.43-4.32-3.39s-.91.31-.59.67 4 2.92 3.59 3a3.23 3.23 0 0 1 -1.64 0c-.32-.16-4-3.16-4.39-3s-.88.6-.32 1 3.31 1.84 3.07 2.08a10.08 10.08 0 0 1 -3.63 0c-.76-.2-1.24-.92-1.91-.32s-1.8 2.75-2.68 3-.68.52-1.32.2-1.83-.76-1.39-1.16 2.63-2.23 2.39-2.79-3.55-4-4.07-4.75c-.86-1.33-1.92-2.76-1.8-3.27s5.55-7.83 6.79-9.47 5.43-5.78 6.91-5.38 4.07 2.47 6.94 5.5 4.07 3.88 6 3.6 2.56-.2 5.31-2.36 5.55-5.23 6.31-7 1.08-3.2.28-4a10.43 10.43 0 0 0 -3.91-2.15 17.77 17.77 0 0 1 -4.76-1.89c-1.67-1-3.27-3.11-3.27-4.23s1.64-2.84 4.23-6a71.18 71.18 0 0 1 9.14-8.77c1-.6 3.12-.52 5.39.76s2.88 2 3.24 2.51.52.92.2.76-1.66-1.89-2.16-1.41-.64.6-.08 1a21.86 21.86 0 0 1 3.71 2.88 4.33 4.33 0 0 1 .87 2.11c-.16-.28-3.31-3.55-3.83-3.51s-.84.32-.52.6 4.79 4.19 5.11 4.59.12 1.48-.08 1.24-3.43-4-4.35-4.2-1 .16-1 .48 4.91 4.12 5.27 4.59.72 1.64.24 1.64-4.75-4.27-5.11-4.23a.53.53 0 0 0 -.23.96zm-40.56 26.86c-.4 0-3.07 3-3.43 3.92a3.3 3.3 0 0 0 .36 2.71c.4.48.92.88 1.27.56s.32-.64-.16-1.2a1.62 1.62 0 0 1 0-2 13.86 13.86 0 0 1 2.48-3c.54-.43-.12-.99-.52-.99zm25.27-25.82a14.9 14.9 0 0 0 -3 3.47c-.4 1.56 1.87 3.15 2.55 3.23s.72-.44.6-.92-1.32-1.35-1.68-2 1.8-2.52 2.2-3.08.05-1.14-.67-.7z" fill="#1d1d1b"/></svg>