<svg height="64" viewBox="0 0 64 64" width="64" xmlns="http://www.w3.org/2000/svg"><path d="m53 23.73a34.36 34.36 0 0 0 0-4.67c-.2-1.48-5.19-1.36-5.19-1.36s-.08-5 0-6.67-.48-2.67-2-3.07-11.89-.6-17.51-.36-10.78 1.2-11.1 1.64.48 8.46.48 8.46l-2.08.08a6.24 6.24 0 0 0 -3.47 1.56c-.32.52.4 5.51.4 5.51l-3.24.15c-1.23 0-3.58.52-3.91 1-.76 1-.28 20.6-.12 23s1.74 3.19 2.2 3.27 9.82 0 10.3.2.16 2.28.32 3 2.27 1 3.43 1 9-.75 14.93-1 9.26-.12 10.22-.68.6-3.44.6-3.44 2.51 0 3.43.08 7.67.36 8 .08.31-22.11.31-25.27-6-2.51-6-2.51zm-1.4-4.15c.12.44.52 3.75.24 3.83s-.48.16-.48 0a6.56 6.56 0 0 0 -.52-1.56c-.32-.68-.76-1.48-1-1.56s-.68.36-.6.52a14.75 14.75 0 0 1 1.28 2.48c-.2 0-.8 0-.8 0a18.67 18.67 0 0 0 -1.23-2.56 1.41 1.41 0 0 0 -.48.2l-.2-1.71c.19-.08 3.68-.08 3.8.36zm-3 3.79h-.6v-1.16a8.11 8.11 0 0 1 .62 1.16zm-30.09-13.3a69.11 69.11 0 0 1 14.58-1.43c8 0 12-.24 13 1.16s.4 13.45.4 13.45-8.1 0-15.37.52-11.7.84-11.9.64c0 0-.56-7.95-.68-10.46s-.19-3.76-.03-3.88zm-5.15 9.59a6 6 0 0 1 3.08-.84c1 0 1.28-.08 1.32.12a11 11 0 0 1 0 1.16s-.48-.88-.88-.64-.56.48-.44.64 1.48 2.51 1.48 2.51l.08 1.56s-2.44-4.87-2.8-4.67-.52.48-.44.64 2.16 4.63 2.16 4.63h-.56s-1.56-3-1.88-3-.56.52-.56.52a20.36 20.36 0 0 1 1 2.4l-1 .08c-.08-.32-.87-4.71-.56-5.11zm32.22 34.21c-.24.12-9.3.6-17.2.92s-8.47.28-8.67 0a47.9 47.9 0 0 1 .29-6.15 20.35 20.35 0 0 1 .56-3.39c.17-.17 4.51-.68 11.82-1.12s13-.52 13.45-.12-.01 9.74-.25 9.86zm12.06-15.53c0 .24.24 2.71 0 2.75s-.36.2-.4-.08-2.32-6.22-2.6-6.26-1 .52-.83.6 3.11 7.14 3.11 7.14v3.91s-3.67-7.06-4.15-7.86-.36-2.2-.88-2.12-.8.56-.28 1.6 5.27 9.38 5.27 9.5.28.56.12.56-1.64.12-1.76-.12-5.83-11.3-6.24-11.5-.87.4-.79.52 6.06 10.66 5.91 10.74a28 28 0 0 1 -3.12.28c-.52 0-1.28 0-1.36-.32s-.32-2.79 0-2.59 1.36 2 1.76 2.11.36-.28.24-.52-4.15-8.22-4.79-8.94-.72-.88-1.12-.72-.4.36-.2.56 2.08 3.19 1.84 3.23-.64.2-1-.12-2.32-3.79-2.79-3.79-.92.28-.6.64 2.64 3.46 2.08 3.46a6.68 6.68 0 0 1 -1.79-.2c-.2-.15-1.52-2.71-1.8-2.75s-.6 0-.48.32 1.4 2.39 1.2 2.47-.84.36-1 .16a18.08 18.08 0 0 0 -2.19-2.86c-.23 0-.79.6-.55.84s1.59 2 1.31 2.07a3.08 3.08 0 0 1 -1.59.2c-.32-.16-1.72-2.11-2-2.11s-1 0-.68.4 1.36 1.83 1.12 1.87a3.49 3.49 0 0 1 -1.28 0c-.33-.16-1.33-1.51-1.57-1.47s-.75.12-.27.48 1.23 1.15.83 1.15-6.74-.2-10.42 0-5.55-.08-6.26 1-.36 3.71-.48 4.91.28 2.16-.16 2.16-6.67 0-7.87-.08-1.35 0-1.75-.2-1.12-1.16-1.16-4.39 0-17.49.2-17.81 2.35-.92 6.94-1.12 9.19-.56 13.34-.87a128.49 128.49 0 0 1 14.05-.72c5.55.12 15.53.68 16.17 1s.8 1 .8 2.72.08 8.7.08 8.7-1-3.23-1.4-3a1.3 1.3 0 0 0 -.44.72s1.68 3.51 1.68 3.75zm-34.99 9.66c.27.06 2.72-.54 7.69-.87s10.66-.13 11.2-.2a.56.56 0 0 0 .12-1.11c-.75-.26-4.16-.14-9.22.06s-9.85.57-10.09 1c-.12.2.03 1.04.3 1.12zm19.35 1.36c-.36-.24-5.54-.15-10.87.12s-9.67 1-9.67 1.26 0 1 .21 1 2.78-.54 9-1.1a108.92 108.92 0 0 1 11.17-.3.62.62 0 0 0 .16-.98zm.36-31.53c-.39-.27-3.21-.27-11.14 0s-10.22.88-10.28 1.17-.06.9.27 1.08.27 0 .93-.15a56.92 56.92 0 0 1 8.74-.93c4.94-.21 10.54.09 11.29 0s.54-.9.15-1.17zm-21.5-2.7c.51.12 4.88-.56 9.91-.89s10.33 0 11.17 0 .93-.75.33-1.2-7.46-.18-11.8-.12a71.67 71.67 0 0 0 -10 .93c-.28.36-.16 1.15.35 1.28zm-13.57 13.12a12.76 12.76 0 0 0 .18 4.91 1.06 1.06 0 0 0 1 0c.3-.18-.09-3.74-.09-4s2.7-.72 3.12-.81a.68.68 0 0 0 .24-1.14c-.38-.28-4.12.56-4.45 1.04zm44.52-.66c-1.05.24-2.84 1.11-2.52 3.14s1.47 2.82 3.57 2.7a2.74 2.74 0 0 0 2.57-3.56c-.43-1.65-1.43-2.78-3.62-2.28zm.45 4.64a1.94 1.94 0 0 1 -1.74-2.36c.06-.66 1-1.14 1.86-1.08.6 0 1.91.42 2 1.53s-.38 2-2.12 1.91z" fill="#1d1d1b"/></svg>