<svg height="64" viewBox="0 0 64 64" width="64" xmlns="http://www.w3.org/2000/svg"><path d="m13.19 40.69a6 6 0 0 0 -5.31 6.31c.36 3.07.76 4.75 1.84 6.27s4.55 2.83 7.34 2.83 5.51-1.24 5.87-4.43.16-5.35-1.52-7.54-3.87-3.68-8.22-3.44zm5.23 11.18c-1.88 1.32-4.83 1.12-7-.12s-2.79-4.35-2-6.43a5.44 5.44 0 0 1 5.11-3.67 6.48 6.48 0 0 1 5.83 3.51 6 6 0 0 1 -1.94 6.71zm39.76-8.26a34.57 34.57 0 0 0 -5-17.93c-3-5-6.78-10.18-15.17-14.49a52.47 52.47 0 0 0 -21.59-5.91c-5.15-.16-8.42.28-9.58 1.16s-1 4.27-1 6.27a6.06 6.06 0 0 0 1 3.71c.64 1.2 2.13 1.8 4.59 2.43 1.56.4 11.58 1.6 16.81 3.32s8.46 5.11 11 8.94 4.43 10.74 5.11 14.65.32 10.14.88 11.26 4.51 1.48 6.51 1.68a6 6 0 0 0 4.26-.88c1-.72 2.38-6.82 2.18-14.21zm-1.35 3.39c-.12-.12-5-5.07-5.07-4.83s-.24 1.16.11 1.48 4.8 4.15 4.88 4.39.08 1.71-.08 1.63-5.11-5.11-5.23-5-.28 1 0 1.24 5.07 4.75 5.07 5.11 0 1.68-.2 1.68-5-5.27-5.15-5.15a1.56 1.56 0 0 0 -.12 1.24c.2.36 4.63 4.55 4.63 4.55s-.88.44-1 .32a52.26 52.26 0 0 0 -4.11-3.66c-.16.08-.64.52-.48.72s3.55 3.16 3.43 3.16a6.15 6.15 0 0 1 -1.71 0c-.16-.16-2.52-2.52-2.68-2.52s-.6.64-.44.76a10.07 10.07 0 0 1 1.32 1.31 5.12 5.12 0 0 1 -1.56-.28 75.49 75.49 0 0 0 -1.6-10.26c-1.47-6.79-3.63-13.26-6.38-16.49s-9.3-7.59-16.17-8.9-14.81-2.08-16.09-2.44c-1-.27-1-.84-1.16-2.35s.16-4.79.64-5.39 3.24-.8 5.87-.84a49.12 49.12 0 0 1 12.58 1.6c4.79 1.31 13.57 4 18.52 9a57.55 57.55 0 0 1 7.7 9.62s-1.39-1.28-1.43-.88a1.69 1.69 0 0 0 .8 1.84 12.37 12.37 0 0 1 2.71 3.34 4 4 0 0 1 .57 1.39s-3-3-3.15-2.8a1 1 0 0 0 .15 1.24c.44.36 3.56 3.51 3.72 3.75s.76 1.84.52 1.76-4.05-3.47-4.24-3.34a1.32 1.32 0 0 0 0 1.15c.2.16 4.24 3.56 4.4 3.92s.52 2.55.32 2.47-4.37-4.76-4.72-4.64-.23 1-.16 1.08 4.88 4.71 5 5.11.19 1.68 0 1.6-5-5.11-5.11-4.91-.2 1.23 0 1.35 5.27 4.79 5.27 5.07 0 1.96-.17 1.8zm-24.4-18.52a50.15 50.15 0 0 0 -12.57-5.87 25.16 25.16 0 0 0 -9.42-1.2c-1.24.02-3.32.59-3.44 1.92s-.64 6.18 0 7.22 2.12 3.67 3.2 4 9.5 2.2 13.53 6.59 4.71 6.75 5 9.34-.44 6.55.36 7.11 3.63.88 6 1.08 3.83-.2 5.11-1.48a7 7 0 0 0 1.91-5c.08-2.12-.44-9-2.23-13.25s-5.13-8.75-7.45-10.46zm7.79 15.88c0 .16-3.12-2.75-3.28-2.79s-.47.56-.43.84a46.55 46.55 0 0 0 4 3.51c.2.16.2.72.2 1s-3.76-3.27-3.92-3.27-.35.75-.12 1 4 3.44 4.12 3.64a3.38 3.38 0 0 1 0 1.43c-.08.32-3.48-3.23-3.68-3.19s-.32.52-.12.88a49 49 0 0 0 3.8 3.43c.2.12.2 1.28.12 1.52s-3.28-3.27-3.6-3.63-.48-.24-.76.12.12.55.4.91 3.76 3.6 3.76 3.6-.24.8-.48.84a44.93 44.93 0 0 1 -3.52-3.68c-.27-.28-.67.44-.71.72s3.19 3.15 3.35 3.43-1.24.28-1.6.2a24.33 24.33 0 0 1 -2.87-2.59c-.32-.32-.6.28-.68.64s1.88 1.91 1.88 1.91a2.6 2.6 0 0 1 -1 0 3.37 3.37 0 0 1 -2-.48c-.6-.51-.84-4.31-1.52-8.9s-3.67-7.42-8.74-10.7a26.88 26.88 0 0 0 -11.82-4 5.18 5.18 0 0 1 -3-1.2c-.4-.36-.2-4.95.08-5.83s1.6-1.11 3.43-1.19c3.72-.16 7.67 1.08 11.5 2.51s8 3.6 9.62 5a21.16 21.16 0 0 1 3.76 4.96c0 .12-1-.48-1.36-.68s-.16.72-.12.88 3.23 2.12 3.35 2.24a4.49 4.49 0 0 1 .44 1.52c0 .23-2.08-1.56-2.39-1.8s-.4.52-.36.88 3.39 2.67 3.55 2.91a1 1 0 0 1 .12.72c0 .2-3.08-2.56-3.27-2.56s-.24.88-.12 1.08 3.75 3 3.83 3.16a4.27 4.27 0 0 1 .16 1.01zm-29.66-36.24c-1.12.51-1.6 2.59-1.48 3.39s.87 1.72 1.32 1.56.36-1 .2-1.16-.36-.72-.08-1.68 1.19-.92 1.59-1.36-.44-1.27-1.55-.75zm-.24 17c-.68 0-1.4 1-1.44 1.52s.6 1.64 1 1.64.48-.52.36-1 .4-1 .64-1.32.12-.88-.56-.88zm2.39 19.6a4.81 4.81 0 0 0 -2.15 2.52c-.08 2 .32 2.07.87 2s.36-.76.36-1.52a4 4 0 0 1 1.6-2.32c.61-.4.12-.92-.68-.72z" fill="#1d1d1b"/></svg>